<svg width="77" height="18" viewBox="0 0 77 18" fill="none" xmlns="http://www.w3.org/2000/svg">
<path d="M9 15C10.1046 15 11 14.1046 11 13C11 11.8954 10.1046 11 9 11C7.89543 11 7 11.8954 7 13C7 14.1046 7.89543 15 9 15Z" fill="#366FED"/>
<path d="M2.5 12C3.88071 12 5 10.8807 5 9.5C5 8.11929 3.88071 7 2.5 7C1.11929 7 0 8.11929 0 9.5C0 10.8807 1.11929 12 2.5 12Z" fill="#366FED"/>
<path d="M9 7C10.6569 7 12 5.65685 12 4C12 2.34315 10.6569 1 9 1C7.34315 1 6 2.34315 6 4C6 5.65685 7.34315 7 9 7Z" fill="#366FED"/>
<path d="M9 13L2 9" stroke="#366FED"/>
<path d="M9.32539 4.37964L2.32539 10.3796" stroke="#366FED"/>
<path d="M20.408 4.54V6.412H17.024V7.9H19.52V9.688H17.024V13H14.672V4.54H20.408ZM23.7506 4.54V13H21.3986V4.54H23.7506ZM32.926 13H30.574L27.442 8.272V13H25.09V4.54H27.442L30.574 9.328V4.54H32.926V13ZM37.6138 4.54C38.5018 4.54 39.2778 4.72 39.9418 5.08C40.6138 5.432 41.1298 5.928 41.4898 6.568C41.8498 7.208 42.0298 7.94 42.0298 8.764C42.0298 9.58 41.8458 10.308 41.4778 10.948C41.1178 11.588 40.6018 12.092 39.9297 12.46C39.2658 12.82 38.4938 13 37.6138 13H34.2658V4.54H37.6138ZM37.4338 10.924C38.1218 10.924 38.6618 10.736 39.0538 10.36C39.4458 9.984 39.6418 9.452 39.6418 8.764C39.6418 8.068 39.4458 7.532 39.0538 7.156C38.6618 6.772 38.1218 6.58 37.4338 6.58H36.6178V10.924H37.4338ZM51.262 4.756V13H50.722V5.884L47.554 13H47.122L43.942 5.884V13H43.402V4.756H43.978L47.338 12.292L50.698 4.756H51.262ZM53.5217 5.032C53.3937 5.032 53.2857 4.992 53.1977 4.912C53.1097 4.824 53.0657 4.708 53.0657 4.564C53.0657 4.428 53.1097 4.316 53.1977 4.228C53.2857 4.14 53.3937 4.096 53.5217 4.096C53.6497 4.096 53.7577 4.14 53.8457 4.228C53.9337 4.316 53.9777 4.428 53.9777 4.564C53.9777 4.708 53.9337 4.824 53.8457 4.912C53.7577 4.992 53.6497 5.032 53.5217 5.032ZM53.7857 6.484V13H53.2457V6.484H53.7857ZM58.7053 6.352C59.4813 6.352 60.1133 6.592 60.6013 7.072C61.0893 7.544 61.3333 8.248 61.3333 9.184V13H60.8053V9.22C60.8053 8.444 60.6093 7.852 60.2173 7.444C59.8253 7.028 59.2933 6.82 58.6213 6.82C57.9173 6.82 57.3533 7.044 56.9293 7.492C56.5133 7.94 56.3053 8.604 56.3053 9.484V13H55.7653V6.484H56.3053V7.864C56.4893 7.376 56.7933 7.004 57.2173 6.748C57.6493 6.484 58.1453 6.352 58.7053 6.352ZM62.9058 9.736C62.9058 9.064 63.0378 8.476 63.3018 7.972C63.5738 7.468 63.9458 7.08 64.4178 6.808C64.8978 6.536 65.4418 6.4 66.0498 6.4C66.7138 6.4 67.2898 6.568 67.7778 6.904C68.2658 7.232 68.6098 7.66 68.8098 8.188V4.12H69.3498V13H68.8098V11.272C68.6178 11.808 68.2818 12.248 67.8018 12.592C67.3218 12.928 66.7378 13.096 66.0498 13.096C65.4418 13.096 64.8978 12.96 64.4178 12.688C63.9458 12.408 63.5738 12.016 63.3018 11.512C63.0378 11 62.9058 10.408 62.9058 9.736ZM68.8098 9.736C68.8098 9.168 68.6898 8.668 68.4498 8.236C68.2178 7.796 67.8978 7.46 67.4898 7.228C67.0818 6.988 66.6258 6.868 66.1218 6.868C65.5938 6.868 65.1298 6.984 64.7298 7.216C64.3298 7.44 64.0178 7.768 63.7938 8.2C63.5698 8.632 63.4578 9.144 63.4578 9.736C63.4578 10.328 63.5698 10.84 63.7938 11.272C64.0178 11.704 64.3298 12.036 64.7298 12.268C65.1378 12.5 65.6018 12.616 66.1218 12.616C66.6258 12.616 67.0818 12.5 67.4898 12.268C67.9058 12.028 68.2298 11.692 68.4618 11.26C68.6938 10.82 68.8098 10.312 68.8098 9.736ZM73.488 13.096C72.76 13.096 72.164 12.936 71.7 12.616C71.244 12.296 70.988 11.84 70.932 11.248H71.484C71.524 11.672 71.716 12.008 72.06 12.256C72.412 12.504 72.888 12.628 73.488 12.628C73.984 12.628 74.376 12.504 74.664 12.256C74.96 12 75.108 11.688 75.108 11.32C75.108 11.064 75.028 10.856 74.868 10.696C74.716 10.528 74.524 10.4 74.292 10.312C74.06 10.224 73.744 10.128 73.344 10.024C72.864 9.896 72.476 9.772 72.18 9.652C71.884 9.524 71.632 9.336 71.424 9.088C71.216 8.84 71.112 8.508 71.112 8.092C71.112 7.788 71.204 7.508 71.388 7.252C71.572 6.988 71.828 6.78 72.156 6.628C72.484 6.476 72.856 6.4 73.272 6.4C73.952 6.4 74.5 6.572 74.916 6.916C75.34 7.252 75.568 7.72 75.6 8.32H75.06C75.036 7.888 74.868 7.536 74.556 7.264C74.244 6.992 73.812 6.856 73.26 6.856C72.796 6.856 72.412 6.976 72.108 7.216C71.804 7.456 71.652 7.748 71.652 8.092C71.652 8.396 71.736 8.644 71.904 8.836C72.08 9.02 72.292 9.164 72.54 9.268C72.796 9.364 73.132 9.468 73.548 9.58C74.004 9.7 74.368 9.82 74.64 9.94C74.92 10.052 75.156 10.22 75.348 10.444C75.54 10.66 75.636 10.952 75.636 11.32C75.636 11.656 75.544 11.96 75.36 12.232C75.176 12.504 74.92 12.716 74.592 12.868C74.264 13.02 73.896 13.096 73.488 13.096Z" fill="black"/>
</svg>
